<svg id="Layer_1" data-name="Layer 1" xmlns="http://www.w3.org/2000/svg" viewBox="0 0 248.88 182.96"><defs><style>.cls-1{fill:#ffd83b;}</style></defs><path class="cls-1" d="M100.41,189.77c-3.11-2.82-4.9-4.31-6.53-5.94q-38.73-38.69-77.41-77.41a51.67,51.67,0,0,1-5.27-6C5.94,93.2,6.53,84.45,12.56,78a17.71,17.71,0,0,1,22-2.89,22.83,22.83,0,0,1,4.33,3.36Q67,106.58,95.05,134.73c1.16,1.17,2.17,2.49,3.7,4.26,1.81-1.74,3.57-3.38,5.27-5.08Q163.44,74.54,222.8,15.15c5.67-5.67,11.72-10,20.32-7.71,12.56,3.39,17.4,17.38,9.63,27.81a38.39,38.39,0,0,1-3.72,4" transform="translate(-7.61 -6.81)"/></svg>